<svg width="408" height="129" viewBox="0 0 408 129" fill="none" xmlns="http://www.w3.org/2000/svg">
<path d="M62.1762 129C27.9933 129 0.175781 100.138 0.175781 64.6708C0.175781 29.204 27.9933 0.341675 62.1762 0.341675C96.359 0.341675 124.177 29.204 124.177 64.6708C124.177 100.138 96.359 129 62.1762 129ZM62.1762 8.12899C32.1355 8.12899 7.68119 33.5018 7.68119 64.6708C7.68119 95.8398 32.1165 121.213 62.1762 121.213C92.2358 121.213 116.671 95.8595 116.671 64.6708C116.671 33.4821 92.2168 8.12899 62.1762 8.12899Z" fill="#F64F18"/>
<path d="M42.7571 108.852C19.2908 108.852 0.175781 89.0385 0.175781 64.6711C0.175781 40.3037 19.2908 20.4904 42.7571 20.4904C66.2234 20.4904 85.3384 40.3037 85.3384 64.6711C85.3384 89.0385 66.2424 108.852 42.7571 108.852ZM42.7571 28.2777C23.414 28.2777 7.68119 44.6015 7.68119 64.6711C7.68119 84.7407 23.414 101.064 42.7571 101.064C62.1002 101.064 77.833 84.7407 77.833 64.6711C77.833 44.6015 62.1002 28.2777 42.7571 28.2777Z" fill="#F64F18"/>
<path d="M29.8174 95.4258C13.4765 95.4258 0.175781 81.6255 0.175781 64.6709C0.175781 47.7162 13.4765 33.9159 29.8174 33.9159C46.1583 33.9159 59.459 47.7162 59.459 64.6709C59.459 81.6255 46.1583 95.4258 29.8174 95.4258ZM29.8174 41.7032C17.6187 41.7032 7.68119 51.9943 7.68119 64.6709C7.68119 77.3474 17.6187 87.6385 29.8174 87.6385C42.0161 87.6385 51.9536 77.3474 51.9536 64.6709C51.9536 51.9943 42.0351 41.7032 29.8174 41.7032Z" fill="#F64F18"/>
<path d="M179.321 100.713C183.772 100.444 187.185 99.4706 189.56 97.7725C192.374 95.7639 193.791 93.0925 193.791 89.7586C193.791 87.315 193.013 85.3271 191.476 83.7947C189.939 82.2623 188.043 81.1027 185.768 80.2743C183.513 79.4667 180.319 78.5349 176.188 77.5202C171.019 76.2363 166.828 74.9317 163.654 73.6478C160.481 72.3639 157.767 70.376 155.491 67.6839C153.236 64.9919 152.098 61.3887 152.098 56.833C152.098 53.0227 153.056 49.5852 154.992 46.5412C156.928 43.4764 159.862 41.0329 163.794 39.2106C167.726 37.3883 172.595 36.4564 178.443 36.4564C182.495 36.4564 186.506 36.9948 190.438 38.0923C194.37 39.1899 197.743 40.743 200.557 42.7723L197.324 50.9312C194.45 49.0261 191.356 47.5766 188.083 46.6033C184.81 45.6093 181.597 45.133 178.463 45.133C172.895 45.133 168.724 46.1891 165.929 48.3013C163.135 50.4135 161.758 53.1263 161.758 56.4603C161.758 58.9038 162.537 60.8917 164.113 62.4241C165.69 63.9565 167.626 65.1369 169.961 65.9859C172.276 66.8349 175.45 67.7461 179.441 68.6779C184.61 69.9618 188.782 71.2664 191.915 72.5503C195.068 73.8342 197.763 75.8221 200.018 78.4728C202.273 81.1234 203.411 84.6851 203.411 89.1787C203.411 92.9269 202.433 96.3437 200.457 99.4291C198.501 102.515 195.508 104.979 191.516 106.76C187.524 108.561 182.615 109.452 176.767 109.452C171.598 109.452 166.588 108.623 161.778 106.946C156.968 105.289 153.176 103.115 150.422 100.465L154.054 92.5127C156.669 94.9562 160.022 96.9442 164.133 98.4766C168.225 100.009 172.436 100.775 176.767 100.775C177.645 100.775 178.483 100.754 179.301 100.713" fill="white"/>
<path d="M263.704 54.5965L238.457 114.028C236.222 119.536 233.627 123.409 230.653 125.645C227.68 127.882 224.087 129 219.896 129C217.341 129 214.866 128.565 212.471 127.716C210.077 126.867 208.101 125.625 206.524 123.989L210.556 116.658C213.25 119.309 216.343 120.634 219.896 120.634C222.191 120.634 224.107 120.013 225.644 118.75C227.181 117.486 228.578 115.333 229.815 112.268L231.492 108.499L208.5 54.5758H218.319L236.501 97.8139L254.484 54.5758H263.724L263.704 54.5965Z" fill="white"/>
<path d="M284.981 56.5223C288.194 54.8863 292.086 54.0787 296.677 54.0787V63.563C296.158 63.5008 295.439 63.4594 294.521 63.4594C289.412 63.4594 285.4 65.0332 282.486 68.2015C279.572 71.3698 278.116 75.8635 278.116 81.7031V108.623H268.675V54.5964H277.716V63.6665C279.353 60.5396 281.788 58.1582 284.981 56.5223Z" fill="white"/>
<path d="M353.218 84.8714H310.967C311.565 89.6342 313.561 93.4445 317.014 96.3436C320.447 99.2427 324.718 100.672 329.827 100.672C336.054 100.672 341.064 98.4972 344.856 94.1485L350.065 100.464C347.71 103.322 344.776 105.496 341.263 106.987C337.751 108.478 333.839 109.224 329.528 109.224C324.019 109.224 319.149 108.044 314.878 105.704C310.627 103.364 307.334 100.071 304.999 95.8673C302.664 91.6636 301.506 86.9008 301.506 81.5995C301.506 76.2983 302.644 71.639 304.899 67.4353C307.155 63.2109 310.268 59.9391 314.24 57.5991C318.211 55.2591 322.682 54.0787 327.652 54.0787C332.621 54.0787 337.072 55.2591 340.964 57.5991C344.856 59.9391 347.909 63.2316 350.105 67.4353C352.3 71.6597 353.398 76.4847 353.398 81.9102C353.398 82.6556 353.338 83.6496 353.198 84.8714H353.218ZM316.315 66.6277C313.262 69.4854 311.485 73.2128 310.967 77.8514H344.377C343.858 73.2957 342.062 69.5682 339.028 66.6898C335.974 63.8115 332.202 62.3619 327.672 62.3619C323.141 62.3619 319.369 63.7907 316.315 66.6484V66.6277Z" fill="white"/>
<path d="M401.976 60.0426C405.868 64.0185 407.824 69.8374 407.824 77.5201V108.623H398.384V78.659C398.384 73.4199 397.166 69.4854 394.751 66.8348C392.336 64.1842 388.863 62.8589 384.333 62.8589C379.224 62.8589 375.192 64.412 372.238 67.4974C369.284 70.5829 367.827 75.0351 367.827 80.7919V108.623H358.387V54.5964H367.428V62.7553C369.324 59.9598 371.899 57.8269 375.152 56.3359C378.385 54.8449 382.078 54.0994 386.209 54.0994C392.835 54.0994 398.084 56.0874 401.976 60.0633V60.0426Z" fill="white"/>
</svg>
